<svg width="95" height="67" viewBox="0 0 95 67" fill="none" xmlns="http://www.w3.org/2000/svg">
<path d="M22.4715 46.4266C22.4715 46.4266 11.6584 58.0733 16.2475 63.2127C20.8366 68.3522 39.4519 68.5707 59.1437 57.8548C71.5998 51.3799 88.6773 38.1954 88.5964 20.2356C89.5514 12.0611 58.4881 22.5423 22.4715 46.4266Z" fill="#D2D3D5"/>
<path d="M53.9828 51.0996C76.4742 42.8556 91.739 28.0751 88.0777 18.0864C84.4164 8.09769 63.2155 6.68335 40.7242 14.9274C18.2328 23.1714 2.96805 37.9519 6.62933 47.9406C10.2906 57.9293 31.4915 59.3437 53.9828 51.0996Z" fill="#1B6AAE" stroke="black" stroke-width="0.5" stroke-miterlimit="10"/>
<path d="M9.74023 6.06348H32.1515L20.9418 26.8236L9.74023 6.06348Z" fill="#D8B265" stroke="black" stroke-width="0.5" stroke-miterlimit="10"/>
<path d="M36.6028 7.36719H52.5148L31.3905 43.4L23.8877 30.5068L36.6028 7.36719Z" fill="#F7FCFC" stroke="black" stroke-width="0.5" stroke-miterlimit="10"/>
<path d="M46.3477 23.5865L54.6112 7.85254C54.6112 7.85254 67.1402 13.251 66.4117 24.0398L46.3477 23.5865Z" fill="#8ED2E2" stroke="black" stroke-width="0.5" stroke-miterlimit="10"/>
<path d="M50.3944 10.7747L52.3611 7.5372C52.3611 7.5372 32.1999 6.11273 32.1514 26.4115C32.1514 26.4115 32.3294 40.0412 47.1731 43.0601C47.1731 43.0601 62.4701 46.079 67.2291 29.1553L64.3883 27.9655C64.3883 27.9655 62.4215 41.7813 47.1569 39.9522C47.1569 39.9522 36.2953 38.4872 35.1055 26.4115C33.9158 14.3358 45.7325 9.49586 50.3944 10.7747Z" fill="#F6FBFD" stroke="black" stroke-width="0.5" stroke-miterlimit="10"/>
</svg>
